<svg width="31" height="29" viewBox="0 0 31 29" fill="none" xmlns="http://www.w3.org/2000/svg">
<path fill-rule="evenodd" clip-rule="evenodd" d="M23.7573 27.9216C24.1368 28.1465 24.6004 27.8055 24.4988 27.3762L22.388 18.4608C22.3447 18.2781 22.4074 18.0866 22.5504 17.9649L29.586 11.9752C29.9245 11.6871 29.7468 11.1336 29.3039 11.0963L20.0119 10.313C19.8282 10.2975 19.6679 10.1821 19.5949 10.0128L15.9591 1.58582C15.7854 1.18325 15.2146 1.18325 15.0409 1.58582L11.4051 10.0128C11.3321 10.1821 11.1718 10.2975 10.9881 10.313L1.69611 11.0963C1.25319 11.1336 1.07554 11.6871 1.41399 11.9752L8.4496 17.9649C8.59255 18.0866 8.65528 18.2782 8.61203 18.4608L6.50121 27.3762C6.39957 27.8055 6.86318 28.1465 7.24268 27.9216L15.2451 23.1789C15.4023 23.0858 15.5977 23.0858 15.7549 23.1789L23.7573 27.9216Z" stroke="black" stroke-width="2"/>
</svg>
